<svg width="128" height="128" viewBox="0 0 24 24" fill="none" xmlns="http://www.w3.org/2000/svg">
  <!-- Sombra sutil para darle profundidad -->
  <path d="M7 21H17C18.1046 21 19 20.1046 19 19V7.82843C19 7.29799 18.7893 6.78929 18.4142 6.41421L14.5858 2.58579C14.2107 2.21071 13.702 2 13.1716 2H7C5.89543 2 5 2.89543 5 4V19C5 20.1046 5.89543 21 7 21Z" fill="#242424" opacity="0.5"/>
  
  <!-- Cuerpo del documento -->
  <path d="M6 20H16C17.1046 20 18 19.1046 18 18V6.82843C18 6.29799 17.7893 5.78929 17.4142 5.41421L13.5858 1.58579C13.2107 1.21071 12.702 1 12.1716 1H6C4.89543 1 4 1.89543 4 3V18C4 19.1046 4.89543 20 6 20Z" fill="#f0f0f0"/>
  
  <!-- Checkmark con el color de la empresa -->
  <path d="M9.5 12L11.5 14L15.5 10" stroke="#99ff23" stroke-width="2" stroke-linecap="round" stroke-linejoin="round"/>
</svg>